{"accessors":[{"bufferView":2,"componentType":5126,"count":725,"max":[2.278076171875,5.010902404785156,2.3500571250915527],"min":[-2.0760135650634766,0,-2.3395867347717285],"type":"VEC3"},{"bufferView":2,"byteOffset":8700,"componentType":5126,"count":725,"max":[0.9999983906745911,1,0.9999983310699463],"min":[-0.9999983310699463,-0.30868199467658997,-0.9999982714653015],"type":"VEC3"},{"bufferView":1,"componentType":5126,"count":725,"max":[0.9889927506446838,0.9830402135848999],"min":[0.011007219552993774,0.01695975661277771],"type":"VEC2"},{"bufferView":0,"componentType":5125,"count":2034,"max":[724],"min":[0],"type":"SCALAR"}],"asset":{"extras":{"author":"sujirour (https://sketchfab.com/sujirour)","license":"CC-BY-4.0 (http://creativecommons.org/licenses/by/4.0/)","source":"https://sketchfab.com/3d-models/coconut-tree-d141941578044b0f861ca83b36d4c411","title":"Coconut Tree"},"generator":"Sketchfab-9.73.0","version":"2.0"},"bufferViews":[{"buffer":0,"byteLength":8136,"byteOffset":0,"name":"floatBufferViews","target":34963},{"buffer":0,"byteLength":5800,"byteOffset":8136,"byteStride":8,"name":"floatBufferViews","target":34962},{"buffer":0,"byteLength":17400,"byteOffset":13936,"byteStride":12,"name":"floatBufferViews","target":34962}],"buffers":[{"byteLength":31336,"uri":"data:application/octet-stream;base64,"}],"extensionsUsed":["KHR_materials_unlit"],"images":[{"uri":"data:application/octet-stream;base64,"}],"materials":[{"doubleSided":true,"extensions":{"KHR_materials_unlit":{}},"name":"coconut_tree_mat","pbrMetallicRoughness":{"baseColorFactor":[1,1,1,1],"baseColorTexture":{"index":0,"texCoord":0},"metallicFactor":0,"roughnessFactor":1}}],"meshes":[{"name":"coconut_tree_coconut_tree_mat_0","primitives":[{"attributes":{"NORMAL":1,"POSITION":0,"TEXCOORD_0":2},"indices":3,"material":0,"mode":4}]}],"nodes":[{"children":[1],"name":"RootNode (gltf orientation matrix)","rotation":[-0.7071067811865475,0,0,0.7071067811865476]},{"children":[2],"name":"RootNode (model correction matrix)"},{"children":[3],"matrix":[1,0,0,0,0,0,1,0,0,-1,0,0,0,0,0,1],"name":"coconut tree.fbx"},{"children":[4],"name":"RootNode"},{"children":[5],"name":"coconut_tree"},{"mesh":0,"name":"coconut_tree_coconut_tree_mat_0"}],"samplers":[{"magFilter":9729,"minFilter":9987,"wrapS":10497,"wrapT":10497}],"scene":0,"scenes":[{"name":"OSG_Scene","nodes":[0]}],"textures":[{"sampler":0,"source":0}]}